<svg id="Calque_1" data-name="Calque 1" xmlns="http://www.w3.org/2000/svg" xmlns:xlink="http://www.w3.org/1999/xlink" viewBox="0 0 109.36 23.21"><defs><style>.cls-1,.cls-2,.cls-3{fill:none;stroke-miterlimit:10;stroke-width:0.75px;}.cls-1{stroke:url(#Dégradé_sans_nom_12);}.cls-2{stroke:url(#Dégradé_sans_nom_12-2);}.cls-3{stroke:url(#Dégradé_sans_nom_12-3);}.cls-4{fill:url(#Dégradé_sans_nom_12-4);}.cls-5{fill:url(#Dégradé_sans_nom_12-5);}</style><linearGradient id="Dégradé_sans_nom_12" x1="132.15" y1="171.86" x2="150.84" y2="171.86" gradientUnits="userSpaceOnUse"><stop offset="0" stop-color="#e5b10c"/><stop offset="1" stop-color="#f7c608"/></linearGradient><linearGradient id="Dégradé_sans_nom_12-2" x1="154.96" y1="170.92" x2="173.65" y2="170.92" xlink:href="#Dégradé_sans_nom_12"/><linearGradient id="Dégradé_sans_nom_12-3" x1="177.77" y1="170.92" x2="196.46" y2="170.92" xlink:href="#Dégradé_sans_nom_12"/><linearGradient id="Dégradé_sans_nom_12-4" x1="87.1" y1="172.09" x2="104.66" y2="172.09" xlink:href="#Dégradé_sans_nom_12"/><linearGradient id="Dégradé_sans_nom_12-5" x1="110.09" y1="172.09" x2="127.66" y2="172.09" xlink:href="#Dégradé_sans_nom_12"/></defs><g id="_5_stars" data-name="5 stars"><path class="cls-1" d="M147.76,161.56c-.47,1.15-2.5,2.48-4.19,3.28-3.63,1.71-7.39,3.38-9.65,6.9a7.29,7.29,0,0,0-.88,6.92,20.08,20.08,0,0,0,6.2-2.89,44.06,44.06,0,0,0,5.66-4.64s-1.58,6.43-10.41,10.38c5.46,3,12.52-.44,14.78-5C152.66,169.63,147.76,161.56,147.76,161.56Z" transform="translate(-87.1 -159.79)"/></g><g id="_5_stars-2" data-name="5 stars"><path class="cls-2" d="M170.57,160.62c-.47,1.14-2.5,2.48-4.19,3.28-3.63,1.71-7.39,3.38-9.65,6.89a7.29,7.29,0,0,0-.88,6.92c2.86-.9,2.86-.9,6.2-2.88a44,44,0,0,0,5.65-4.64s-1.57,6.42-10.4,10.37c5.46,3,12.52-.43,14.78-5C175.47,168.68,170.57,160.62,170.57,160.62Z" transform="translate(-87.1 -159.79)"/></g><g id="_5_stars-3" data-name="5 stars"><path class="cls-3" d="M193.38,160.62c-.47,1.14-2.5,2.48-4.19,3.28-3.63,1.71-7.4,3.38-9.65,6.89a7.29,7.29,0,0,0-.88,6.92c2.86-.9,2.86-.9,6.19-2.88a43.38,43.38,0,0,0,5.66-4.64s-1.57,6.42-10.4,10.37c5.46,3,12.51-.43,14.78-5C198.28,168.68,193.38,160.62,193.38,160.62Z" transform="translate(-87.1 -159.79)"/></g><path class="cls-4" d="M104.22,173.43a3.27,3.27,0,0,1-.48-.35,1.1,1.1,0,0,1-.2-.66c0-.62.11-1.24.06-1.86-.06-.84-.47-1.73-.11-2.51a3.43,3.43,0,0,1,1-1.09,22,22,0,0,0-2.15-5.39c-.47,1.15-2.5,2.49-4.19,3.29l-1.18.55a1,1,0,0,1,.1.82,1.52,1.52,0,0,1-1.2.79,3.84,3.84,0,0,0-1.43.38c-.43.27-.7.77-1.15,1a2.33,2.33,0,0,1-1.11.15l-.64,0a12.5,12.5,0,0,0-3,3.23,7.29,7.29,0,0,0-.88,6.92,17,17,0,0,0,4-1.62,2,2,0,0,1,0-.87,1.81,1.81,0,0,1,.85-1.14,5.18,5.18,0,0,1,1.36-.55,2.47,2.47,0,0,1,1.77-.05,49.45,49.45,0,0,0,3.8-3.29,11.74,11.74,0,0,1-1.45,3h.1c.46,0,.74.5.95.92a.4.4,0,0,0,.15.19c.1,0,.22,0,.34,0a.38.38,0,0,1,.28.37,1,1,0,0,1-.14.49.69.69,0,0,1-.2.28.73.73,0,0,1-.48.11h-.85a.3.3,0,0,1-.16,0l-.08-.07c-.08,0-.18,0-.25.08a2.45,2.45,0,0,1-.88.45.41.41,0,0,1-.29,0l-.11-.08c-.12-.07-.27,0-.34.17s-.14.27-.27.32a.3.3,0,0,1-.3-.12,21.91,21.91,0,0,1-6.43,4.27,9.26,9.26,0,0,0,4,1.09l.07,0a2,2,0,0,0,.26-.06c.3-.11.43-.45.66-.66a.88.88,0,0,1,.9-.18c.34.14.57.51.93.58s.9-.37,1.36-.26h0a11.71,11.71,0,0,0,6.65-5.49,11.39,11.39,0,0,0,.82-2.31A1.39,1.39,0,0,0,104.22,173.43Z" transform="translate(-87.1 -159.79)"/><path class="cls-5" d="M127.22,173.43a2.81,2.81,0,0,1-.48-.35,1,1,0,0,1-.2-.66c0-.62.11-1.24.06-1.86-.07-.84-.47-1.73-.12-2.51a3.43,3.43,0,0,1,1-1.09,22,22,0,0,0-2.15-5.39c-.47,1.15-2.5,2.49-4.19,3.29l-1.18.55a.92.92,0,0,1,.1.82,1.49,1.49,0,0,1-1.19.79,3.94,3.94,0,0,0-1.44.38c-.43.27-.69.77-1.15,1a2.29,2.29,0,0,1-1.11.15l-.64,0a12.85,12.85,0,0,0-3,3.23,7.35,7.35,0,0,0-.88,6.92,16.82,16.82,0,0,0,4.05-1.62,2.19,2.19,0,0,1,0-.87,1.79,1.79,0,0,1,.86-1.14,5,5,0,0,1,1.36-.55,2.47,2.47,0,0,1,1.77-.05,49,49,0,0,0,3.79-3.29,11.74,11.74,0,0,1-1.45,3h.11c.46,0,.74.5.94.92a.42.42,0,0,0,.16.19c.1,0,.22,0,.33,0a.39.39,0,0,1,.29.37,1.07,1.07,0,0,1-.14.49.8.8,0,0,1-.2.28.76.76,0,0,1-.49.11h-.84a.32.32,0,0,1-.17,0l-.07-.07c-.09,0-.18,0-.26.08a2.49,2.49,0,0,1-.87.45.44.44,0,0,1-.3,0,.7.7,0,0,0-.1-.08c-.13-.07-.28,0-.35.17s-.13.27-.27.32a.28.28,0,0,1-.29-.12,22.19,22.19,0,0,1-6.43,4.27,9.22,9.22,0,0,0,4,1.09l.06,0,.27-.06c.29-.11.43-.45.66-.66a.86.86,0,0,1,.89-.18c.34.14.57.51.93.58s.91-.37,1.36-.26h0a11.65,11.65,0,0,0,6.65-5.49,10.86,10.86,0,0,0,.83-2.31A1.39,1.39,0,0,0,127.22,173.43Z" transform="translate(-87.1 -159.79)"/></svg>