<svg id="Calque_1" data-name="Calque 1" xmlns="http://www.w3.org/2000/svg" xmlns:xlink="http://www.w3.org/1999/xlink" viewBox="0 0 108.64 22.26"><defs><style>.cls-1{fill:url(#Dégradé_sans_nom_44);}.cls-2{fill:url(#Dégradé_sans_nom_44-2);}.cls-3{fill:url(#Dégradé_sans_nom_44-3);}.cls-4{fill:url(#Dégradé_sans_nom_44-4);}.cls-5{fill:none;stroke-miterlimit:10;stroke-width:0.75px;stroke:url(#Dégradé_sans_nom_44-5);}</style><linearGradient id="Dégradé_sans_nom_44" x1="85.54" y1="125.48" x2="107.69" y2="111.09" gradientUnits="userSpaceOnUse"><stop offset="0" stop-color="#98db16"/><stop offset="0.19" stop-color="#9fdc16"/><stop offset="0.45" stop-color="#b1e015"/><stop offset="0.76" stop-color="#d0e713"/><stop offset="1" stop-color="#eded11"/></linearGradient><linearGradient id="Dégradé_sans_nom_44-2" x1="108.12" y1="125.48" x2="130.27" y2="111.09" xlink:href="#Dégradé_sans_nom_44"/><linearGradient id="Dégradé_sans_nom_44-3" x1="130.71" y1="125.48" x2="152.86" y2="111.09" xlink:href="#Dégradé_sans_nom_44"/><linearGradient id="Dégradé_sans_nom_44-4" x1="153.29" y1="125.48" x2="175.44" y2="111.09" xlink:href="#Dégradé_sans_nom_44"/><linearGradient id="Dégradé_sans_nom_44-5" x1="177.17" y1="124.49" x2="196.53" y2="111.92" xlink:href="#Dégradé_sans_nom_44"/></defs><g id="_5_stars" data-name="5 stars"><path class="cls-1" d="M102,106.11c-.47,1.15-2.5,2.48-4.19,3.28-3.63,1.71-7.4,3.38-9.65,6.89a7.29,7.29,0,0,0-.88,6.92c2.86-.9,2.86-.9,6.19-2.88a43.38,43.38,0,0,0,5.66-4.64s-1.57,6.43-10.4,10.37c5.46,3,12.51-.43,14.78-5C106.86,114.18,102,106.11,102,106.11Z" transform="translate(-86.72 -105.28)"/></g><g id="_5_stars-2" data-name="5 stars"><path class="cls-2" d="M124.54,106.11c-.47,1.15-2.5,2.48-4.19,3.28-3.63,1.71-7.39,3.38-9.65,6.89a7.29,7.29,0,0,0-.88,6.92c2.86-.9,2.86-.9,6.2-2.88a44,44,0,0,0,5.65-4.64s-1.57,6.43-10.4,10.37c5.46,3,12.52-.43,14.78-5C129.44,114.18,124.54,106.11,124.54,106.11Z" transform="translate(-86.72 -105.28)"/></g><g id="_5_stars-3" data-name="5 stars"><path class="cls-3" d="M147.12,106.11c-.47,1.15-2.5,2.48-4.19,3.28-3.63,1.71-7.39,3.38-9.65,6.89a7.29,7.29,0,0,0-.88,6.92c2.87-.9,2.87-.9,6.2-2.88a44.06,44.06,0,0,0,5.66-4.64s-1.58,6.43-10.41,10.37c5.46,3,12.52-.43,14.78-5C152,114.18,147.12,106.11,147.12,106.11Z" transform="translate(-86.72 -105.28)"/></g><g id="_5_stars-4" data-name="5 stars"><path class="cls-4" d="M169.7,106.11c-.47,1.15-2.5,2.48-4.19,3.28-3.63,1.71-7.39,3.38-9.65,6.89a7.29,7.29,0,0,0-.88,6.92c2.87-.9,2.87-.9,6.2-2.88a44.06,44.06,0,0,0,5.66-4.64s-1.58,6.43-10.41,10.37c5.46,3,12.52-.43,14.78-5C174.6,114.18,169.7,106.11,169.7,106.11Z" transform="translate(-86.72 -105.28)"/></g><g id="_5_stars-5" data-name="5 stars"><path class="cls-5" d="M192.28,106.11c-.47,1.15-2.5,2.48-4.19,3.28-3.63,1.71-7.39,3.38-9.65,6.89a7.29,7.29,0,0,0-.88,6.92c2.87-.9,2.87-.9,6.2-2.88a43.38,43.38,0,0,0,5.66-4.64s-1.58,6.43-10.41,10.37c5.46,3,12.52-.43,14.78-5C197.18,114.18,192.28,106.11,192.28,106.11Z" transform="translate(-86.72 -105.28)"/></g></svg>