<svg id="Calque_1" data-name="Calque 1" xmlns="http://www.w3.org/2000/svg" xmlns:xlink="http://www.w3.org/1999/xlink" viewBox="0 0 110.38 22.26"><defs><style>.cls-1,.cls-2{fill:none;stroke-miterlimit:10;stroke-width:0.75px;}.cls-1{stroke:url(#Dégradé_sans_nom_49);}.cls-2{stroke:url(#Dégradé_sans_nom_49-2);}.cls-3{fill:url(#Dégradé_sans_nom_49-3);}.cls-4{fill:url(#Dégradé_sans_nom_49-4);}.cls-5{fill:url(#Dégradé_sans_nom_49-5);}</style><linearGradient id="Dégradé_sans_nom_49" x1="156.1" y1="151.74" x2="175.46" y2="139.17" gradientUnits="userSpaceOnUse"><stop offset="0" stop-color="#e2d70e"/><stop offset="0.86" stop-color="#efe80c"/><stop offset="1" stop-color="#f2eb0c"/></linearGradient><linearGradient id="Dégradé_sans_nom_49-2" x1="179.29" y1="151.74" x2="198.65" y2="139.17" xlink:href="#Dégradé_sans_nom_49"/><linearGradient id="Dégradé_sans_nom_49-3" x1="132.6" y1="152.72" x2="154.75" y2="138.33" xlink:href="#Dégradé_sans_nom_49"/><linearGradient id="Dégradé_sans_nom_49-4" x1="108.71" y1="152.38" x2="130.86" y2="137.99" xlink:href="#Dégradé_sans_nom_49"/><linearGradient id="Dégradé_sans_nom_49-5" x1="85.91" y1="152.72" x2="108.06" y2="138.33" xlink:href="#Dégradé_sans_nom_49"/></defs><g id="_5_stars" data-name="5 stars"><path class="cls-1" d="M171.21,133.36c-.47,1.15-2.5,2.49-4.19,3.28-3.63,1.72-7.39,3.38-9.65,6.9a7.29,7.29,0,0,0-.88,6.92c2.87-.9,2.87-.9,6.2-2.89a44.13,44.13,0,0,0,5.66-4.63s-1.58,6.42-10.41,10.37c5.46,3,12.52-.43,14.78-5C176.11,141.43,171.21,133.36,171.21,133.36Z" transform="translate(-87.1 -132.53)"/></g><g id="_5_stars-2" data-name="5 stars"><path class="cls-2" d="M194.4,133.36c-.47,1.15-2.5,2.49-4.19,3.28-3.63,1.72-7.39,3.38-9.65,6.9a7.29,7.29,0,0,0-.88,6.92c2.86-.9,2.86-.9,6.2-2.89a44.74,44.74,0,0,0,5.65-4.63s-1.57,6.42-10.4,10.37c5.46,3,12.52-.43,14.78-5C199.3,141.43,194.4,133.36,194.4,133.36Z" transform="translate(-87.1 -132.53)"/></g><path class="cls-3" d="M149,133.36c-.4,1-1.93,2.09-3.42,2.89a2.56,2.56,0,0,1-.05.27,5.46,5.46,0,0,1-3.14,3.85c.69-.31,1-2.36,1-3-1.5.29-3.3,1.6-4.55,2.47a13.27,13.27,0,0,0-3.68,3.71,7.29,7.29,0,0,0-.88,6.92c2.86-.9,2.86-.9,6.19-2.89a44.13,44.13,0,0,0,5.66-4.63s-1.57,6.42-10.4,10.37c5.46,3,12.51-.43,14.78-5C153.93,141.43,149,133.36,149,133.36Z" transform="translate(-87.1 -132.53)"/><path class="cls-4" d="M125.14,133c-.4,1-1.93,2.09-3.42,2.89a2.56,2.56,0,0,1,0,.27,5.46,5.46,0,0,1-3.14,3.85c.69-.31,1-2.36,1-3-1.51.29-3.31,1.6-4.56,2.47a13.27,13.27,0,0,0-3.68,3.71,7.29,7.29,0,0,0-.88,6.92c2.86-.9,2.86-.9,6.19-2.89a43.38,43.38,0,0,0,5.66-4.64S120.7,149,111.87,153c5.46,3,12.51-.43,14.78-5C130,141.09,125.14,133,125.14,133Z" transform="translate(-87.1 -132.53)"/><path class="cls-5" d="M102.33,133.36c-.4,1-1.93,2.09-3.42,2.89a2.56,2.56,0,0,1,0,.27,5.46,5.46,0,0,1-3.14,3.85c.69-.31,1-2.36,1-3-1.51.29-3.3,1.6-4.56,2.47a13.27,13.27,0,0,0-3.68,3.71,7.29,7.29,0,0,0-.88,6.92c2.86-.9,2.86-.9,6.2-2.89a45.55,45.55,0,0,0,5.66-4.63s-1.58,6.42-10.41,10.37c5.46,3,12.52-.43,14.78-5C107.23,141.43,102.33,133.36,102.33,133.36Z" transform="translate(-87.1 -132.53)"/></svg>