<svg id="Calque_1" data-name="Calque 1" xmlns="http://www.w3.org/2000/svg" xmlns:xlink="http://www.w3.org/1999/xlink" viewBox="0 0 109.17 21.06"><defs><style>.cls-1{fill:url(#Dégradé_sans_nom_6);}.cls-2{fill:url(#Dégradé_sans_nom_6-2);}.cls-3{fill:url(#Dégradé_sans_nom_6-3);}.cls-4{fill:url(#Dégradé_sans_nom_6-4);}.cls-5{fill:url(#Dégradé_sans_nom_6-5);}</style><linearGradient id="Dégradé_sans_nom_6" x1="176.96" y1="94.78" x2="196.28" y2="82.23" gradientUnits="userSpaceOnUse"><stop offset="0" stop-color="#17e239"/><stop offset="1" stop-color="#11fa4a"/></linearGradient><linearGradient id="Dégradé_sans_nom_6-2" x1="154.15" y1="94.78" x2="173.48" y2="82.23" xlink:href="#Dégradé_sans_nom_6"/><linearGradient id="Dégradé_sans_nom_6-3" x1="131.35" y1="94.78" x2="150.67" y2="82.23" xlink:href="#Dégradé_sans_nom_6"/><linearGradient id="Dégradé_sans_nom_6-4" x1="108.54" y1="94.78" x2="127.86" y2="82.23" xlink:href="#Dégradé_sans_nom_6"/><linearGradient id="Dégradé_sans_nom_6-5" x1="85.73" y1="94.78" x2="105.05" y2="82.23" xlink:href="#Dégradé_sans_nom_6"/></defs><g id="_5_stars" data-name="5 stars"><path class="cls-1" d="M193.38,75.41c-.47,1.15-2.5,2.49-4.19,3.28-3.63,1.72-7.4,3.38-9.65,6.9a7.29,7.29,0,0,0-.88,6.92c2.86-.9,2.86-.9,6.19-2.89A43.38,43.38,0,0,0,190.51,85s-1.57,6.43-10.4,10.38c5.46,3,12.51-.43,14.78-5C198.28,83.48,193.38,75.41,193.38,75.41Z" transform="translate(-86.91 -75.41)"/></g><g id="_5_stars-2" data-name="5 stars"><path class="cls-2" d="M170.57,75.41c-.47,1.15-2.5,2.49-4.19,3.28-3.63,1.72-7.39,3.38-9.65,6.9a7.29,7.29,0,0,0-.88,6.92c2.86-.9,2.86-.9,6.2-2.89A44,44,0,0,0,167.7,85s-1.57,6.43-10.4,10.38c5.46,3,12.52-.43,14.78-5C175.47,83.48,170.57,75.41,170.57,75.41Z" transform="translate(-86.91 -75.41)"/></g><g id="_5_stars-3" data-name="5 stars"><path class="cls-3" d="M147.76,75.41c-.47,1.15-2.5,2.49-4.19,3.28-3.63,1.72-7.39,3.38-9.65,6.9a7.29,7.29,0,0,0-.88,6.92c2.87-.9,2.87-.9,6.2-2.89A44.06,44.06,0,0,0,144.9,85s-1.58,6.43-10.41,10.38c5.46,3,12.52-.43,14.78-5C152.66,83.48,147.76,75.41,147.76,75.41Z" transform="translate(-86.91 -75.41)"/></g><g id="_5_stars-4" data-name="5 stars"><path class="cls-4" d="M125,75.41c-.47,1.15-2.5,2.49-4.19,3.28-3.63,1.72-7.39,3.38-9.65,6.9a7.29,7.29,0,0,0-.88,6.92c2.87-.9,2.87-.9,6.2-2.89A44.06,44.06,0,0,0,122.09,85s-1.58,6.43-10.41,10.38c5.46,3,12.52-.43,14.78-5C129.85,83.48,125,75.41,125,75.41Z" transform="translate(-86.91 -75.41)"/></g><g id="_5_stars-5" data-name="5 stars"><path class="cls-5" d="M102.14,75.41c-.47,1.15-2.5,2.49-4.19,3.28-3.63,1.72-7.39,3.38-9.65,6.9a7.32,7.32,0,0,0-.88,6.92c2.87-.9,2.87-.9,6.2-2.89A43.38,43.38,0,0,0,99.28,85s-1.58,6.43-10.4,10.38c5.45,3,12.51-.43,14.77-5C107,83.48,102.14,75.41,102.14,75.41Z" transform="translate(-86.91 -75.41)"/></g></svg>